<svg width="49" height="48" viewBox="0 0 49 48" fill="none" xmlns="http://www.w3.org/2000/svg">
<mask id="path-1-inside-1_2475_2562" fill="white">
<path d="M14.3746 8.64023C12.3466 8.91623 10.7386 9.70823 9.32256 11.1242C8.53056 11.9162 7.72656 13.1282 7.72656 13.5242C7.72656 13.9442 8.14656 14.3042 8.60256 14.2562C8.92656 14.2202 9.07056 14.0882 9.53856 13.3682C10.9306 11.2682 13.0186 10.1762 15.6466 10.1762C18.6466 10.1762 21.2986 11.5682 23.0506 14.0522C23.9866 15.4082 24.3346 15.4442 25.1506 14.2562C26.4706 12.3002 28.2826 11.0042 30.5026 10.4282C31.6426 10.1282 33.6106 10.0922 34.6306 10.3682C36.3586 10.8362 37.8106 11.9042 38.9026 13.5002C39.3706 14.1842 39.5386 14.3522 39.8386 14.3762C40.2706 14.4242 40.6426 14.0762 40.6426 13.6322C40.6426 12.9722 39.3226 11.2442 38.1586 10.3682C36.4906 9.10823 34.9786 8.61623 32.7466 8.60423C29.5186 8.59223 26.6986 9.90023 24.5506 12.3962L24.1666 12.8522L23.7826 12.3962C22.7506 11.1842 21.3466 10.1162 19.9426 9.49223C18.3826 8.78423 15.9826 8.41223 14.3746 8.64023Z"/>
</mask>
<path d="M14.3746 8.64023L14.7957 11.6105L14.7874 11.6117L14.7791 11.6128L14.3746 8.64023ZM8.60256 14.2562L8.93386 17.2379L8.92524 17.2388L8.91662 17.2397L8.60256 14.2562ZM9.53856 13.3682L7.02323 11.7333L7.03058 11.722L7.03802 11.7107L9.53856 13.3682ZM23.0506 14.0522L25.5021 12.3231L25.5109 12.3355L25.5195 12.348L23.0506 14.0522ZM25.1506 14.2562L27.6373 15.9344L27.6304 15.9446L27.6234 15.9548L25.1506 14.2562ZM30.5026 10.4282L31.266 13.3295L31.256 13.3321L30.5026 10.4282ZM34.6306 10.3682L35.4141 7.47237L35.4148 7.47255L34.6306 10.3682ZM38.9026 13.5002L36.4266 15.1943L38.9026 13.5002ZM39.8386 14.3762L40.0778 11.3858L40.1239 11.3895L40.1699 11.3946L39.8386 14.3762ZM38.1586 10.3682L36.3546 12.7653L36.3503 12.762L38.1586 10.3682ZM32.7466 8.60423L32.7577 5.60424L32.7627 5.60427L32.7466 8.60423ZM24.5506 12.3962L22.2558 10.4638L22.2662 10.4515L22.2767 10.4394L24.5506 12.3962ZM24.1666 12.8522L26.4613 14.7846L24.1666 17.5096L21.8718 14.7846L24.1666 12.8522ZM23.7826 12.3962L26.0667 10.4513L26.072 10.4576L26.0773 10.4638L23.7826 12.3962ZM19.9426 9.49223L18.7241 12.2337L18.7134 12.2289L18.7027 12.224L19.9426 9.49223ZM14.3746 8.64023L14.7791 11.6128C13.3876 11.8022 12.3866 12.3028 11.4439 13.2455L9.32256 11.1242L7.20124 9.00291C9.09053 7.11362 11.3055 6.03026 13.97 5.66763L14.3746 8.64023ZM9.32256 11.1242L11.4439 13.2455C11.3329 13.3565 11.2047 13.4995 11.0728 13.6628C10.9417 13.8251 10.8224 13.9884 10.7263 14.133C10.6246 14.286 10.5762 14.3771 10.566 14.3983C10.5607 14.4092 10.5853 14.361 10.6164 14.265C10.6327 14.2149 10.6573 14.1315 10.679 14.0215C10.6998 13.916 10.7266 13.7435 10.7266 13.5242H7.72656H4.72656C4.72656 12.6808 5.06719 11.9875 5.16313 11.7888C5.32842 11.4466 5.53052 11.111 5.72886 10.8125C6.1242 10.2175 6.64669 9.55746 7.20124 9.00291L9.32256 11.1242ZM7.72656 13.5242H10.7266C10.7266 12.7117 10.328 12.1098 9.92662 11.7715C9.51846 11.4276 8.93969 11.2042 8.28851 11.2727L8.60256 14.2562L8.91662 17.2397C6.88705 17.4534 4.72656 15.9184 4.72656 13.5242H7.72656ZM8.60256 14.2562L8.27127 11.2746C8.17738 11.285 7.92952 11.3201 7.62949 11.4497C7.31778 11.5845 7.09401 11.758 6.95669 11.8877C6.84134 11.9966 6.79342 12.0692 6.82766 12.0228C6.85788 11.9819 6.91583 11.8985 7.02323 11.7333L9.53856 13.3682L12.0539 15.0032C11.8511 15.3152 11.5141 15.8364 11.0764 16.2498C10.3915 16.8967 9.63145 17.1604 8.93386 17.2379L8.60256 14.2562ZM9.53856 13.3682L7.03802 11.7107C9.01327 8.73083 12.0635 7.17623 15.6466 7.17623V10.1762V13.1762C13.9736 13.1762 12.8479 13.8056 12.0391 15.0257L9.53856 13.3682ZM15.6466 10.1762V7.17623C19.641 7.17623 23.1993 9.05811 25.5021 12.3231L23.0506 14.0522L20.599 15.7813C19.3978 14.0783 17.6521 13.1762 15.6466 13.1762V10.1762ZM23.0506 14.0522L25.5195 12.348C25.7337 12.6584 25.8015 12.7231 25.7711 12.6929C25.7466 12.6687 25.6343 12.5593 25.4351 12.4418C25.2246 12.3176 24.8853 12.1664 24.4383 12.1225C23.435 12.0242 22.7883 12.523 22.6284 12.6637C22.4963 12.7799 22.4983 12.819 22.6777 12.5577L25.1506 14.2562L27.6234 15.9548C27.3949 16.2875 27.0473 16.7676 26.5912 17.1688C26.1073 17.5945 25.1621 18.2223 23.8528 18.0939C22.6707 17.978 21.8955 17.2995 21.5465 16.9536C21.1621 16.5724 20.8354 16.1241 20.5816 15.7564L23.0506 14.0522ZM25.1506 14.2562L22.6638 12.5781C24.38 10.0351 26.7992 8.28977 29.7491 7.52438L30.5026 10.4282L31.256 13.3321C29.7659 13.7187 28.5612 14.5654 27.6373 15.9344L25.1506 14.2562ZM30.5026 10.4282L29.7391 7.527C30.6231 7.29436 31.6604 7.19683 32.5643 7.1826C33.4451 7.16873 34.5123 7.22834 35.4141 7.47237L34.6306 10.3682L33.847 13.2641C33.7288 13.2321 33.3021 13.1717 32.6588 13.1819C32.0387 13.1916 31.522 13.2621 31.266 13.3295L30.5026 10.4282ZM34.6306 10.3682L35.4148 7.47255C37.8937 8.14393 39.9213 9.67649 41.3785 11.8062L38.9026 13.5002L36.4266 15.1943C35.6998 14.132 34.8234 13.5285 33.8463 13.2639L34.6306 10.3682ZM38.9026 13.5002L41.3785 11.8062C41.4858 11.963 41.5476 12.0484 41.5834 12.0951C41.6232 12.1469 41.5883 12.0944 41.4948 12.006C41.3884 11.9054 41.1837 11.7363 40.8783 11.5967C40.5615 11.452 40.2735 11.4014 40.0778 11.3858L39.8386 14.3762L39.5993 17.3667C38.7259 17.2968 37.9764 16.9367 37.3723 16.3655C36.9645 15.9798 36.6351 15.499 36.4266 15.1943L38.9026 13.5002ZM39.8386 14.3762L40.1699 11.3946C38.7165 11.2331 37.6426 12.3989 37.6426 13.6322H40.6426H43.6426C43.6426 15.7536 41.8246 17.6154 39.5073 17.3579L39.8386 14.3762ZM40.6426 13.6322H37.6426C37.6426 14.0073 37.7274 14.2577 37.7451 14.3097C37.7716 14.387 37.7873 14.4095 37.7659 14.369C37.7228 14.2874 37.6215 14.1234 37.4509 13.8995C37.0983 13.4369 36.6659 12.9996 36.3546 12.7653L38.1586 10.3682L39.9625 7.9712C40.8152 8.61289 41.6248 9.47759 42.2232 10.2629C42.5282 10.6631 42.8296 11.1095 43.0703 11.5649C43.2451 11.8956 43.6426 12.6845 43.6426 13.6322H40.6426ZM38.1586 10.3682L36.3503 12.762C35.2357 11.92 34.3633 11.613 32.7304 11.6042L32.7466 8.60423L32.7627 5.60427C35.5939 5.61949 37.7455 6.29645 39.9668 7.97444L38.1586 10.3682ZM32.7466 8.60423L32.7354 11.6042C30.4084 11.5956 28.4155 12.5043 26.8245 14.3531L24.5506 12.3962L22.2767 10.4394C24.9817 7.2961 28.6287 5.5889 32.7577 5.60425L32.7466 8.60423ZM24.5506 12.3962L26.8453 14.3286L26.4613 14.7846L24.1666 12.8522L21.8718 10.9198L22.2558 10.4638L24.5506 12.3962ZM24.1666 12.8522L21.8718 14.7846L21.4878 14.3286L23.7826 12.3962L26.0773 10.4638L26.4613 10.9198L24.1666 12.8522ZM23.7826 12.3962L21.4984 14.3411C20.7403 13.4508 19.6941 12.6647 18.7241 12.2337L19.9426 9.49223L21.161 6.75079C22.9991 7.56772 24.7609 8.91769 26.0667 10.4513L23.7826 12.3962ZM19.9426 9.49223L18.7027 12.224C17.6245 11.7347 15.7988 11.4683 14.7957 11.6105L14.3746 8.64023L13.9534 5.66994C16.1663 5.35616 19.1406 5.83374 21.1824 6.76041L19.9426 9.49223Z" fill="black" mask="url(#path-1-inside-1_2475_2562)"/>
<mask id="path-3-inside-2_2475_2562" fill="white">
<path d="M8.39841 16.02C7.60641 16.296 6.93441 17.088 6.59841 18.144C6.55041 18.324 6.38241 18.36 5.60241 18.36C4.46241 18.36 3.86241 18.612 3.27441 19.308C2.67441 19.992 2.56641 20.484 2.56641 22.392C2.56641 23.892 2.60241 24.12 2.85441 24.66C3.37041 25.788 4.22241 26.28 5.62641 26.28C6.38241 26.28 6.55041 26.316 6.59841 26.484C6.94641 27.552 7.41441 28.116 8.26641 28.512C8.96241 28.836 9.52641 28.872 10.2224 28.632C10.9304 28.38 11.4224 27.984 11.7824 27.36C12.0944 26.844 12.1064 26.724 12.1424 24.936L12.1904 23.04L15.5624 23.016L18.9344 22.98L20.1104 21.252C20.7584 20.292 21.3104 19.5 21.3344 19.464C21.3704 19.44 22.0424 21.408 22.8464 23.832C23.6384 26.256 24.3464 28.344 24.4184 28.464C24.5984 28.8 25.1024 28.872 25.4504 28.608C25.6064 28.476 26.4584 27.192 27.3464 25.74L28.9424 23.1L32.5424 23.064L36.1424 23.04L36.1904 24.924C36.2264 26.724 36.2384 26.844 36.5504 27.36C36.9104 27.984 37.4024 28.38 38.1104 28.632C38.8064 28.872 39.3704 28.836 40.0664 28.512C40.9184 28.116 41.3864 27.552 41.7344 26.484C41.7824 26.316 41.9504 26.28 42.7064 26.28C44.1104 26.28 44.9624 25.788 45.4784 24.66C45.7304 24.12 45.7664 23.892 45.7664 22.38C45.7664 20.412 45.6824 20.016 45.0824 19.32C44.4704 18.612 43.8824 18.36 42.7304 18.36C41.9504 18.36 41.7824 18.324 41.7344 18.144C41.3744 17.028 40.6184 16.188 39.7424 15.96C38.5304 15.624 37.2584 16.128 36.5864 17.208C36.2384 17.784 36.2264 17.832 36.1904 19.644L36.1424 21.48H32.3264C30.2264 21.48 28.3784 21.528 28.2224 21.588C28.0184 21.66 27.5144 22.38 26.6264 23.868C25.9064 25.068 25.2824 26.004 25.2344 25.956C25.1984 25.896 24.5024 23.88 23.6984 21.468C22.2944 17.232 22.2224 17.064 21.8744 16.92C21.3464 16.692 21.1424 16.896 19.4984 19.32L18.0824 21.42L15.1184 21.456L12.1664 21.48V19.836C12.1544 18.768 12.0944 18.024 11.9984 17.724C11.4704 16.248 9.87441 15.492 8.39841 16.02ZM10.1504 17.748L10.5464 18.096L10.5824 22.128C10.6184 26.568 10.6064 26.688 9.88641 27.06C9.43041 27.3 9.19041 27.288 8.72241 27C8.26641 26.724 8.08641 26.196 8.08641 25.116C8.08641 24.216 8.01441 24.012 7.65441 23.868C7.23441 23.712 6.77841 23.94 6.63441 24.36C6.50241 24.708 6.47841 24.72 5.79441 24.72C4.35441 24.72 4.12641 24.396 4.12641 22.32C4.12641 20.22 4.33041 19.92 5.72241 19.92C6.46641 19.92 6.49041 19.932 6.65841 20.304C6.80241 20.628 6.89841 20.712 7.25841 20.736C7.85841 20.784 8.08641 20.532 8.09841 19.824C8.11041 18.312 8.29041 17.736 8.84241 17.52C9.34641 17.316 9.75441 17.388 10.1504 17.748ZM39.6104 17.64C40.0664 17.916 40.2464 18.444 40.2464 19.584C40.2464 20.544 40.4144 20.796 41.0744 20.736C41.4344 20.712 41.5304 20.628 41.6744 20.304C41.8424 19.932 41.8664 19.92 42.6104 19.92C44.0024 19.92 44.2064 20.22 44.2064 22.32C44.2064 24.396 43.9784 24.72 42.5384 24.72C41.8544 24.72 41.8304 24.708 41.6984 24.36C41.5544 23.928 41.0984 23.712 40.6784 23.88C40.2704 24.036 40.2104 24.168 40.2344 25.044C40.2584 26.148 40.0784 26.724 39.6104 27C39.1424 27.288 38.9024 27.3 38.4464 27.06C37.7264 26.688 37.7144 26.568 37.7504 22.128L37.7864 18.096L38.1824 17.748C38.6384 17.34 39.0704 17.304 39.6104 17.64Z"/>
</mask>
<path d="M8.39841 16.02L9.40887 18.8448L9.39727 18.8489L9.38563 18.853L8.39841 16.02ZM6.59841 18.144L3.6997 17.3711L3.71804 17.3023L3.73963 17.2344L6.59841 18.144ZM3.27441 19.308L5.56606 21.2441L5.54807 21.2654L5.52968 21.2864L3.27441 19.308ZM2.85441 24.66L5.57296 23.3914L5.57778 23.4017L5.58252 23.4121L2.85441 24.66ZM6.59841 26.484L3.74601 27.4135L3.72896 27.3611L3.71383 27.3082L6.59841 26.484ZM8.26641 28.512L9.53087 25.7915L9.5325 25.7923L8.26641 28.512ZM10.2224 28.632L11.2284 31.4584L11.2144 31.4633L11.2004 31.4682L10.2224 28.632ZM11.7824 27.36L9.18385 25.8609L9.19926 25.8342L9.21521 25.8078L11.7824 27.36ZM12.1424 24.936L9.14301 24.8757L9.14317 24.8679L9.14337 24.8601L12.1424 24.936ZM12.1904 23.04L9.19137 22.9641L9.26487 20.0608L12.1691 20.0401L12.1904 23.04ZM15.5624 23.016L15.5944 26.0159L15.5838 26.016L15.5624 23.016ZM18.9344 22.98L21.4145 24.6679L20.5331 25.9632L18.9664 25.9799L18.9344 22.98ZM20.1104 21.252L22.597 22.9305L22.5905 22.9399L20.1104 21.252ZM21.3344 19.464L18.8383 17.7999L19.1711 17.3007L19.6703 16.9679L21.3344 19.464ZM22.8464 23.832L25.6939 22.8876L25.6981 22.9003L22.8464 23.832ZM24.4184 28.464L26.9909 26.9206L27.0284 26.9831L27.0628 27.0474L24.4184 28.464ZM25.4504 28.608L27.3882 30.8982L27.3272 30.9498L27.2636 30.9981L25.4504 28.608ZM27.3464 25.74L29.9137 27.2921L29.9097 27.2987L29.9057 27.3053L27.3464 25.74ZM28.9424 23.1L26.3751 21.548L27.2402 20.1169L28.9124 20.1002L28.9424 23.1ZM32.5424 23.064L32.5124 20.0642L32.5224 20.0641L32.5424 23.064ZM36.1424 23.04L36.1224 20.0401L39.0664 20.0205L39.1414 22.9636L36.1424 23.04ZM36.1904 24.924L39.1894 24.8476L39.1896 24.8558L39.1898 24.8641L36.1904 24.924ZM36.5504 27.36L39.1176 25.8078L39.1336 25.8342L39.149 25.8609L36.5504 27.36ZM38.1104 28.632L37.1324 31.4682L37.1184 31.4633L37.1044 31.4584L38.1104 28.632ZM40.0664 28.512L38.8003 25.7923L38.8019 25.7915L40.0664 28.512ZM41.7344 26.484L44.619 27.3082L44.6039 27.3611L44.5868 27.4135L41.7344 26.484ZM45.4784 24.66L42.7503 23.4121L42.755 23.4017L42.7599 23.3914L45.4784 24.66ZM45.0824 19.32L47.352 17.3582L47.3546 17.3612L45.0824 19.32ZM41.7344 18.144L44.5895 17.223L44.6132 17.2965L44.6331 17.3711L41.7344 18.144ZM39.7424 15.96L38.9868 18.8633L38.9638 18.8573L38.941 18.851L39.7424 15.96ZM36.5864 17.208L34.0187 15.6567L34.0288 15.6399L34.0392 15.6231L36.5864 17.208ZM36.1904 19.644L39.1898 19.7036L39.1896 19.713L39.1894 19.7225L36.1904 19.644ZM36.1424 21.48L39.1414 21.5585L39.065 24.48H36.1424V21.48ZM28.2224 21.588L29.2993 24.3881L29.2603 24.4031L29.2209 24.417L28.2224 21.588ZM26.6264 23.868L29.2026 25.4054L29.1989 25.4115L26.6264 23.868ZM25.2344 25.956L23.1131 28.0774L22.8519 27.8162L22.6619 27.4995L25.2344 25.956ZM23.6984 21.468L20.8524 22.4167L20.8507 22.4119L23.6984 21.468ZM21.8744 16.92L20.7274 19.6921L20.7062 19.6833L20.6851 19.6742L21.8744 16.92ZM19.4984 19.32L17.011 17.6428L17.0156 17.6361L19.4984 19.32ZM18.0824 21.42L20.5698 23.0972L19.6909 24.4007L18.1188 24.4198L18.0824 21.42ZM15.1184 21.456L15.1548 24.4559L15.1428 24.4559L15.1184 21.456ZM12.1664 21.48L12.1908 24.4799L9.16641 24.5045V21.48H12.1664ZM12.1664 19.836L15.1662 19.8023L15.1664 19.8192V19.836H12.1664ZM11.9984 17.724L14.8231 16.7136L14.8402 16.7614L14.8557 16.8097L11.9984 17.724ZM10.1504 17.748L8.17006 20.0015L8.15108 19.9849L8.13239 19.9679L10.1504 17.748ZM10.5464 18.096L12.5268 15.8426L13.5343 16.728L13.5463 18.0693L10.5464 18.096ZM10.5824 22.128L13.5823 22.1013L13.5823 22.1037L10.5824 22.128ZM9.88641 27.06L8.48917 24.4053L8.49924 24.4L8.50935 24.3948L9.88641 27.06ZM8.72241 27L10.2758 24.4335L10.2853 24.4393L10.2947 24.4451L8.72241 27ZM7.65441 23.868L8.69897 21.0558L8.73394 21.0688L8.76858 21.0826L7.65441 23.868ZM6.63441 24.36L9.47224 25.333L9.45656 25.3788L9.4394 25.424L6.63441 24.36ZM6.65841 20.304L9.39252 19.0693L9.3962 19.0774L9.39984 19.0856L6.65841 20.304ZM7.25841 20.736L7.45796 17.7427L7.47781 17.744L7.49764 17.7456L7.25841 20.736ZM8.09841 19.824L11.0983 19.8479L11.0982 19.8614L11.098 19.8749L8.09841 19.824ZM8.84241 17.52L9.96798 20.3009L9.95183 20.3074L9.9356 20.3138L8.84241 17.52ZM39.6104 17.64L38.057 20.2065L38.0412 20.197L38.0255 20.1872L39.6104 17.64ZM41.0744 20.736L40.8028 17.7484L40.8388 17.7451L40.8749 17.7427L41.0744 20.736ZM41.6744 20.304L38.933 19.0856L38.9366 19.0774L38.9403 19.0693L41.6744 20.304ZM41.6984 24.36L38.8934 25.424L38.8717 25.3668L38.8524 25.3087L41.6984 24.36ZM40.6784 23.88L41.7926 26.6655L41.7713 26.674L41.7498 26.6822L40.6784 23.88ZM40.2344 25.044L43.2333 24.9619L43.2335 24.9704L43.2337 24.9788L40.2344 25.044ZM39.6104 27L38.0381 24.4451L38.0621 24.4303L38.0865 24.416L39.6104 27ZM38.4464 27.06L39.8235 24.3948L39.8336 24.4L39.8436 24.4053L38.4464 27.06ZM37.7504 22.128L34.7505 22.1037L34.7505 22.1013L37.7504 22.128ZM37.7864 18.096L34.7865 18.0693L34.7985 16.728L35.8061 15.8426L37.7864 18.096ZM38.1824 17.748L40.1828 19.9838L40.1728 19.9927L40.1628 20.0015L38.1824 17.748ZM8.39841 16.02L9.38563 18.853C9.58295 18.7842 9.64396 18.6962 9.61578 18.7295C9.58995 18.76 9.51824 18.8618 9.45718 19.0537L6.59841 18.144L3.73963 17.2344C4.26267 15.5906 5.45782 13.8679 7.41118 13.1871L8.39841 16.02ZM6.59841 18.144L9.49711 18.917C9.36847 19.3994 9.07699 20.0422 8.44415 20.5656C7.8878 21.0257 7.31145 21.1863 7.00969 21.2516C6.49019 21.3641 5.91183 21.36 5.60241 21.36V18.36V15.36C5.78385 15.36 5.882 15.3577 5.93342 15.3552C6.00262 15.3518 5.90668 15.3514 5.74013 15.3875C5.58386 15.4213 5.10727 15.5392 4.62028 15.9419C4.05682 16.4079 3.80434 16.9787 3.6997 17.3711L6.59841 18.144ZM5.60241 18.36V21.36C5.42282 21.36 5.32967 21.3704 5.29362 21.3759C5.26351 21.3805 5.29834 21.378 5.36908 21.349C5.40346 21.3349 5.4398 21.3172 5.47592 21.2962C5.5119 21.2753 5.54147 21.2547 5.5638 21.2374C5.60789 21.2032 5.60915 21.1931 5.56606 21.2441L3.27441 19.308L0.982749 17.372C1.5029 16.7563 2.17298 16.1745 3.09374 15.7971C3.96473 15.4402 4.83575 15.36 5.60241 15.36V18.36ZM3.27441 19.308L5.52968 21.2864C5.46606 21.3589 5.4949 21.3368 5.54039 21.2539C5.59318 21.1578 5.61586 21.0776 5.62023 21.0585C5.62058 21.0569 5.61555 21.0786 5.60871 21.1329C5.60181 21.1878 5.59408 21.2675 5.58728 21.381C5.5732 21.6156 5.56641 21.9332 5.56641 22.392H2.56641H-0.433594C-0.433594 21.4726 -0.417304 20.547 -0.229413 19.7236C0.00924468 18.6778 0.476638 17.9482 1.01913 17.3297L3.27441 19.308ZM2.56641 22.392H5.56641C5.56641 22.7621 5.56873 23.0196 5.57459 23.2122C5.5805 23.4071 5.58876 23.483 5.59095 23.4999C5.59144 23.5037 5.58965 23.489 5.58365 23.4614C5.57735 23.4326 5.56897 23.4012 5.55918 23.3708C5.54108 23.3145 5.52937 23.298 5.57296 23.3914L2.85441 24.66L0.135857 25.9287C-0.0679169 25.492 -0.265636 24.9925 -0.359134 24.2722C-0.429226 23.7323 -0.433594 23.098 -0.433594 22.392H2.56641ZM2.85441 24.66L5.58252 23.4121C5.61619 23.4857 5.62539 23.4834 5.59174 23.4439C5.57495 23.4242 5.55066 23.399 5.51866 23.3721C5.48652 23.3451 5.45221 23.3211 5.41795 23.3011C5.34642 23.2594 5.3055 23.2528 5.32758 23.2577C5.3553 23.2639 5.44655 23.28 5.62641 23.28V26.28V29.28C4.59099 29.28 3.4532 29.1006 2.39686 28.485C1.3034 27.8478 0.585739 26.9124 0.126296 25.908L2.85441 24.66ZM5.62641 26.28V23.28C5.93302 23.28 6.49115 23.2771 6.99594 23.3834C7.28403 23.444 7.84069 23.5932 8.38776 24.0237C9.0202 24.5213 9.33718 25.1496 9.48298 25.6599L6.59841 26.484L3.71383 27.3082C3.83563 27.7345 4.11361 28.2953 4.67742 28.7389C5.15587 29.1154 5.61428 29.224 5.75987 29.2547C5.91898 29.2882 6.00972 29.2879 5.94408 29.2847C5.89504 29.2823 5.80054 29.28 5.62641 29.28V26.28ZM6.59841 26.484L9.4508 25.5546C9.55339 25.8695 9.60774 25.9018 9.55858 25.8422C9.53327 25.8115 9.50368 25.7845 9.48071 25.7674C9.46123 25.753 9.46986 25.7632 9.53087 25.7915L8.26641 28.512L7.00195 31.2326C6.25059 30.8833 5.53229 30.3909 4.92823 29.6579C4.34507 28.9503 3.99142 28.1666 3.74601 27.4135L6.59841 26.484ZM8.26641 28.512L9.5325 25.7923C9.58619 25.8173 9.59788 25.8183 9.57555 25.812C9.54999 25.8049 9.49883 25.7936 9.42977 25.7893C9.36007 25.785 9.29964 25.7895 9.25685 25.7962C9.21728 25.8024 9.21017 25.8077 9.24443 25.7959L10.2224 28.632L11.2004 31.4682C10.5608 31.6887 9.84665 31.8266 9.05905 31.7778C8.27897 31.7295 7.59461 31.5084 7.00032 31.2318L8.26641 28.512ZM10.2224 28.632L9.21643 25.8057C9.26296 25.7892 9.28151 25.779 9.28064 25.7794C9.27869 25.7805 9.26304 25.7894 9.24062 25.8076C9.21789 25.8261 9.19895 25.8454 9.1858 25.8611C9.17327 25.8761 9.17348 25.8789 9.18385 25.8609L11.7824 27.36L14.381 28.8592C13.6391 30.1451 12.5583 30.985 11.2284 31.4584L10.2224 28.632ZM11.7824 27.36L9.21521 25.8078C9.28264 25.6963 9.23642 25.7618 9.18724 25.8824C9.12467 26.0359 9.10224 26.1584 9.09747 26.191C9.09655 26.1973 9.09946 26.1789 9.10376 26.1229C9.10806 26.067 9.1127 25.9877 9.11734 25.8741C9.1269 25.6402 9.13387 25.3298 9.14301 24.8757L12.1424 24.936L15.1418 24.9964C15.1258 25.792 15.1151 26.5069 15.0343 27.0591C14.9075 27.9268 14.6131 28.4766 14.3496 28.9123L11.7824 27.36ZM12.1424 24.936L9.14337 24.8601L9.19137 22.9641L12.1904 23.04L15.1894 23.116L15.1414 25.012L12.1424 24.936ZM12.1904 23.04L12.1691 20.0401L15.5411 20.0161L15.5624 23.016L15.5838 26.016L12.2118 26.04L12.1904 23.04ZM15.5624 23.016L15.5304 20.0162L18.9024 19.9802L18.9344 22.98L18.9664 25.9799L15.5944 26.0159L15.5624 23.016ZM18.9344 22.98L16.4543 21.2922L17.6303 19.5642L20.1104 21.252L22.5905 22.9399L21.4145 24.6679L18.9344 22.98ZM20.1104 21.252L17.6239 19.5736C17.9545 19.0838 18.2599 18.6379 18.4853 18.3105C18.7357 17.9467 18.8419 17.7944 18.8383 17.7999L21.3344 19.464L23.8306 21.1281C23.8029 21.1697 23.6211 21.4314 23.4275 21.7126C23.2089 22.0302 22.9143 22.4603 22.597 22.9305L20.1104 21.252ZM21.3344 19.464L19.6703 16.9679C21.2117 15.9403 22.6629 16.7386 23.0224 16.9828C23.4314 17.2607 23.6682 17.5735 23.7279 17.6521C23.8926 17.8686 23.9914 18.0624 24.0119 18.1018C24.0795 18.2323 24.1284 18.3493 24.1468 18.3935C24.1949 18.5093 24.2446 18.6412 24.2881 18.7591C24.3798 19.0083 24.5005 19.3516 24.6386 19.7524C24.9172 20.5606 25.2904 21.6713 25.6939 22.8876L22.8464 23.832L19.9989 24.7765C19.5984 23.5688 19.2336 22.4835 18.9662 21.7077C18.8313 21.3165 18.727 21.0208 18.6575 20.832C18.6203 20.7309 18.6053 20.6941 18.6067 20.6973C18.6082 20.7009 18.6142 20.7154 18.624 20.7371C18.632 20.7549 18.6532 20.8017 18.6851 20.8632C18.6985 20.889 18.7914 21.0727 18.9513 21.2831C19.0087 21.3585 19.2434 21.6692 19.6507 21.9459C19.8643 22.091 20.2859 22.3381 20.8812 22.4293C21.5589 22.5331 22.3258 22.4087 22.9985 21.9602L21.3344 19.464ZM22.8464 23.832L25.6981 22.9003C26.0915 24.1046 26.4629 25.2215 26.7433 26.0482C26.8841 26.463 26.999 26.796 27.0811 27.0274C27.1229 27.1451 27.1512 27.2227 27.1678 27.2664C27.1767 27.2899 27.1759 27.287 27.1682 27.2683C27.1645 27.2594 27.1526 27.231 27.1346 27.1918C27.1259 27.1729 27.0744 27.0597 26.9909 26.9206L24.4184 28.464L21.8459 30.0075C21.7579 29.8609 21.7007 29.7363 21.685 29.7023C21.66 29.648 21.64 29.6009 21.627 29.5694C21.6006 29.5058 21.5764 29.4434 21.5575 29.3936C21.5185 29.2907 21.4736 29.1665 21.4265 29.0337C21.3308 28.7641 21.2057 28.4011 21.0615 27.9759C20.7719 27.1226 20.3933 25.9835 19.9948 24.7638L22.8464 23.832ZM24.4184 28.464L27.0628 27.0474C26.6187 26.2184 25.858 25.8703 25.2892 25.7903C24.7162 25.7097 24.1208 25.8512 23.6372 26.218L25.4504 28.608L27.2636 30.9981C25.8273 32.0877 23.0366 32.2375 21.774 29.8807L24.4184 28.464ZM25.4504 28.608L23.5126 26.3179C23.3565 26.45 23.2563 26.5647 23.2393 26.5839C23.2059 26.6217 23.1867 26.6461 23.1863 26.6467C23.185 26.6483 23.2039 26.6241 23.2481 26.5623C23.3339 26.4425 23.4604 26.2578 23.6222 26.0133C23.9428 25.5289 24.3585 24.8756 24.7871 24.1748L27.3464 25.74L29.9057 27.3053C29.4463 28.0565 28.992 28.7712 28.6256 29.3248C28.4439 29.5993 28.2727 29.8511 28.1271 30.0545C28.0556 30.1544 27.9754 30.2635 27.8942 30.3663C27.8676 30.3999 27.6676 30.6618 27.3882 30.8982L25.4504 28.608ZM27.3464 25.74L24.7791 24.188L26.3751 21.548L28.9424 23.1L31.5097 24.6521L29.9137 27.2921L27.3464 25.74ZM28.9424 23.1L28.9124 20.1002L32.5124 20.0642L32.5424 23.064L32.5724 26.0639L28.9724 26.0999L28.9424 23.1ZM32.5424 23.064L32.5224 20.0641L36.1224 20.0401L36.1424 23.04L36.1624 26.04L32.5624 26.064L32.5424 23.064ZM36.1424 23.04L39.1414 22.9636L39.1894 24.8476L36.1904 24.924L33.1914 25.0005L33.1434 23.1165L36.1424 23.04ZM36.1904 24.924L39.1898 24.8641C39.1989 25.3212 39.2059 25.634 39.2155 25.8698C39.2202 25.9844 39.2248 26.0645 39.2291 26.1212C39.2335 26.1781 39.2365 26.1972 39.2356 26.1915C39.2311 26.1603 39.2089 26.0379 39.1462 25.8839C39.0968 25.7625 39.0502 25.6963 39.1176 25.8078L36.5504 27.36L33.9832 28.9123C33.7187 28.4749 33.4247 27.9248 33.2982 27.0556C33.2177 26.5028 33.207 25.7858 33.191 24.984L36.1904 24.924ZM36.5504 27.36L39.149 25.8609C39.1593 25.8789 39.1595 25.8761 39.147 25.8611C39.1339 25.8454 39.1149 25.8261 39.0922 25.8076C39.0698 25.7894 39.0541 25.7805 39.0522 25.7794C39.0513 25.779 39.0699 25.7892 39.1164 25.8057L38.1104 28.632L37.1044 31.4584C35.7745 30.985 34.6937 30.1451 33.9518 28.8592L36.5504 27.36ZM38.1104 28.632L39.0884 25.7959C39.1226 25.8077 39.1155 25.8024 39.076 25.7962C39.0332 25.7895 38.9727 25.785 38.903 25.7893C38.834 25.7936 38.7828 25.8049 38.7573 25.812C38.7349 25.8183 38.7466 25.8173 38.8003 25.7923L40.0664 28.512L41.3325 31.2318C40.7382 31.5084 40.0538 31.7295 39.2738 31.7778C38.4862 31.8266 37.772 31.6887 37.1324 31.4682L38.1104 28.632ZM40.0664 28.512L38.8019 25.7915C38.8629 25.7632 38.8716 25.753 38.8521 25.7674C38.8291 25.7845 38.7995 25.8115 38.7742 25.8422C38.7251 25.9018 38.7794 25.8695 38.882 25.5546L41.7344 26.484L44.5868 27.4135C44.3414 28.1666 43.9877 28.9503 43.4046 29.6579C42.8005 30.3909 42.0822 30.8833 41.3309 31.2326L40.0664 28.512ZM41.7344 26.484L38.8498 25.6599C38.9956 25.1496 39.3126 24.5213 39.945 24.0237C40.4921 23.5932 41.0488 23.444 41.3369 23.3834C41.8417 23.2771 42.3998 23.28 42.7064 23.28V26.28V29.28C42.5323 29.28 42.4378 29.2823 42.3887 29.2847C42.3231 29.2879 42.4138 29.2882 42.5729 29.2547C42.7185 29.224 43.1769 29.1154 43.6554 28.7389C44.2192 28.2953 44.4972 27.7345 44.619 27.3082L41.7344 26.484ZM42.7064 26.28V23.28C42.8863 23.28 42.9775 23.2639 43.0052 23.2577C43.0273 23.2528 42.9864 23.2594 42.9149 23.3011C42.8806 23.3211 42.8463 23.3451 42.8142 23.3721C42.7822 23.399 42.7579 23.4242 42.7411 23.4439C42.7074 23.4834 42.7166 23.4857 42.7503 23.4121L45.4784 24.66L48.2065 25.908C47.7471 26.9124 47.0294 27.8478 45.936 28.485C44.8796 29.1006 43.7418 29.28 42.7064 29.28V26.28ZM45.4784 24.66L42.7599 23.3914C42.8034 23.298 42.7915 23.315 42.7732 23.3719C42.7634 23.4026 42.755 23.434 42.7487 23.4627C42.7428 23.4901 42.7411 23.5045 42.7416 23.5002C42.744 23.4822 42.7523 23.4047 42.7582 23.2078C42.7641 23.0131 42.7664 22.7532 42.7664 22.38H45.7664H48.7664C48.7664 23.0918 48.762 23.7284 48.6922 24.2689C48.5989 24.9909 48.4013 25.4908 48.197 25.9287L45.4784 24.66ZM45.7664 22.38H42.7664C42.7664 21.8977 42.7609 21.5699 42.7481 21.3287C42.7352 21.0855 42.7184 21.0128 42.7208 21.0238C42.73 21.0648 42.7601 21.1645 42.8211 21.274C42.8693 21.3607 42.8975 21.3801 42.8102 21.2789L45.0824 19.32L47.3546 17.3612C47.853 17.9393 48.3395 18.6491 48.578 19.7223C48.758 20.5322 48.7664 21.4615 48.7664 22.38H45.7664ZM45.0824 19.32L42.8128 21.2819C42.7561 21.2163 42.7475 21.2167 42.7827 21.2439C42.801 21.2581 42.8275 21.2767 42.8615 21.2966C42.8958 21.3165 42.9311 21.3339 42.9655 21.3481C43.0368 21.3775 43.073 21.3804 43.0441 21.376C43.028 21.3735 42.9956 21.3694 42.9429 21.366C42.89 21.3625 42.8204 21.36 42.7304 21.36V18.36V15.36C43.501 15.36 44.3757 15.4396 45.2523 15.801C46.1738 16.1808 46.8374 16.7629 47.352 17.3582L45.0824 19.32ZM42.7304 18.36V21.36C42.421 21.36 41.8426 21.3641 41.3231 21.2516C41.0214 21.1863 40.445 21.0257 39.8887 20.5656C39.2558 20.0422 38.9643 19.3994 38.8357 18.917L41.7344 18.144L44.6331 17.3711C44.5285 16.9787 44.276 16.4079 43.7125 15.9419C43.2255 15.5392 42.749 15.4213 42.5927 15.3875C42.4261 15.3514 42.3302 15.3518 42.3994 15.3552C42.4508 15.3577 42.549 15.36 42.7304 15.36V18.36ZM41.7344 18.144L38.8793 19.0651C38.8494 18.9724 38.815 18.8972 38.7826 18.8399C38.7499 18.7821 38.7233 18.7494 38.7117 18.7366C38.6808 18.7026 38.7568 18.8035 38.9868 18.8633L39.7424 15.96L40.4981 13.0568C42.6807 13.6249 44.0291 15.4858 44.5895 17.223L41.7344 18.144ZM39.7424 15.96L38.941 18.851C38.9762 18.8608 39.0238 18.8592 39.0656 18.8426C39.1067 18.8264 39.1281 18.8017 39.1336 18.793L36.5864 17.208L34.0392 15.6231C35.4013 13.4341 38.0261 12.3711 40.5439 13.0691L39.7424 15.96ZM36.5864 17.208L39.1542 18.7594C39.0518 18.9289 39.0857 18.8818 39.1238 18.7961C39.1879 18.6521 39.2202 18.5191 39.2317 18.4488C39.2358 18.4238 39.2259 18.4746 39.2157 18.7098C39.2059 18.9364 39.199 19.2423 39.1898 19.7036L36.1904 19.644L33.191 19.5845C33.2067 18.7926 33.2162 18.0542 33.3111 17.4763C33.4598 16.5709 33.8082 16.005 34.0187 15.6567L36.5864 17.208ZM36.1904 19.644L39.1894 19.7225L39.1414 21.5585L36.1424 21.48L33.1434 21.4016L33.1914 19.5656L36.1904 19.644ZM36.1424 21.48V24.48H32.3264V21.48V18.48H36.1424V21.48ZM32.3264 21.48V24.48C31.296 24.48 30.336 24.4919 29.624 24.5105C29.265 24.5199 28.9881 24.5306 28.8041 24.541C28.7597 24.5436 28.7248 24.5458 28.6984 24.5478C28.6711 24.5498 28.6594 24.5509 28.6601 24.5509C28.6609 24.5508 28.6682 24.55 28.6809 24.5485C28.6928 24.547 28.7165 24.5439 28.7488 24.5387C28.7782 24.5339 28.8347 24.5243 28.9073 24.5077C28.9651 24.4946 29.1143 24.4593 29.2993 24.3881L28.2224 21.588L27.1455 18.788C27.4698 18.6633 27.7548 18.6215 27.7935 18.6152C27.8968 18.5986 27.9898 18.5881 28.0547 18.5815C28.1882 18.5679 28.3316 18.5582 28.4642 18.5507C28.7362 18.5352 29.0818 18.5227 29.4668 18.5126C30.2429 18.4922 31.2568 18.48 32.3264 18.48V21.48ZM28.2224 21.588L29.2209 24.417C29.4767 24.3267 29.6685 24.218 29.7881 24.1422C29.9119 24.0636 30.0044 23.9906 30.0632 23.9411C30.1761 23.8462 30.2414 23.7728 30.2525 23.7603C30.275 23.735 30.2416 23.7703 30.1386 23.9174C29.9401 24.201 29.6368 24.6778 29.2025 25.4054L26.6264 23.868L24.0503 22.3307C24.5041 21.5703 24.8967 20.9431 25.2232 20.4767C25.3827 20.2487 25.5691 19.9976 25.7712 19.7705C25.8721 19.6572 26.0172 19.5041 26.2001 19.3502C26.3501 19.224 26.7036 18.9427 27.2239 18.7591L28.2224 21.588ZM26.6264 23.868L29.1989 25.4115C28.8228 26.0384 28.4607 26.615 28.1746 27.0441C28.0373 27.2501 27.8889 27.4653 27.7514 27.6445C27.6956 27.7173 27.5721 27.8763 27.4126 28.0378C27.3578 28.0932 27.1417 28.3135 26.8144 28.5135C26.6653 28.6047 26.2661 28.8356 25.6949 28.9231C25.0205 29.0264 23.9634 28.9277 23.1131 28.0774L25.2344 25.956L27.3557 23.8347C26.5084 22.9874 25.4554 22.8898 24.7863 22.9923C24.2203 23.079 23.8274 23.3072 23.6857 23.3938C23.3731 23.5849 23.176 23.7888 23.1443 23.8209C23.0765 23.8896 23.0317 23.9427 23.0171 23.9602C23.0072 23.9719 23.0002 23.9806 22.9963 23.9855C22.9943 23.9881 22.9928 23.99 22.9918 23.9912C22.9909 23.9925 22.9904 23.9931 22.9904 23.9931C22.9903 23.9932 22.9907 23.9927 22.9915 23.9917C22.9922 23.9907 22.9933 23.9892 22.9948 23.9872C22.9977 23.9833 23.0018 23.9778 23.0071 23.9706C23.0177 23.9559 23.0317 23.9364 23.0491 23.9115C23.0844 23.8611 23.1288 23.7961 23.1823 23.7159C23.4002 23.3891 23.71 22.8977 24.0539 22.3246L26.6264 23.868ZM25.2344 25.956L22.6619 27.4995C22.5804 27.3636 22.5276 27.2503 22.5149 27.2231C22.4933 27.177 22.4769 27.1389 22.4676 27.1169C22.4486 27.0722 22.4335 27.0338 22.425 27.012C22.4068 26.9654 22.389 26.9175 22.3744 26.8777C22.3439 26.7945 22.3058 26.6876 22.2629 26.566C22.1761 26.3197 22.0576 25.978 21.9168 25.5678C21.6348 24.7458 21.2569 23.6305 20.8524 22.4167L23.6984 21.468L26.5445 20.5194C26.9439 21.7176 27.316 22.8162 27.592 23.6203C27.7302 24.0231 27.8427 24.3474 27.9217 24.5714C27.9617 24.6848 27.9901 24.7641 28.0077 24.8121C28.0171 24.8379 28.0188 24.8418 28.0151 24.8325C28.0139 24.8294 28.0048 24.806 27.9906 24.7726C27.9837 24.7563 27.9694 24.7229 27.9496 24.6805C27.9386 24.6571 27.8873 24.5466 27.8069 24.4126L25.2344 25.956ZM23.6984 21.468L20.8507 22.4119C20.1308 20.2398 19.7995 19.2576 19.6069 18.7786C19.4984 18.5085 19.5356 18.6679 19.7199 18.9104C19.8454 19.0756 20.027 19.2671 20.2731 19.4396C20.5023 19.6003 20.6996 19.6806 20.7274 19.6921L21.8744 16.92L23.0215 14.148C23.4118 14.3095 23.9942 14.6182 24.4977 15.281C24.8372 15.7279 25.0455 16.2211 25.1739 16.5405C25.4553 17.2405 25.862 18.4602 26.5461 20.5242L23.6984 21.468ZM21.8744 16.92L20.6851 19.6742C20.7208 19.6897 21.3201 19.9632 22.1266 19.7943C22.5011 19.7158 22.7828 19.5703 22.9622 19.4534C23.1294 19.3444 23.2226 19.2506 23.236 19.237C23.2458 19.2271 23.1613 19.3156 22.9173 19.6519C22.6899 19.9654 22.3931 20.3966 21.9812 21.004L19.4984 19.32L17.0156 17.6361C17.7595 16.5393 18.4057 15.5874 18.9738 15.0141C19.2848 14.7002 19.921 14.126 20.8966 13.9217C21.9412 13.7029 22.764 14.0364 23.0637 14.1659L21.8744 16.92ZM19.4984 19.32L21.9858 20.9972L20.5698 23.0972L18.0824 21.42L15.595 19.7429L17.011 17.6428L19.4984 19.32ZM18.0824 21.42L18.1188 24.4198L15.1548 24.4558L15.1184 21.456L15.082 18.4563L18.046 18.4203L18.0824 21.42ZM15.1184 21.456L15.1428 24.4559L12.1908 24.4799L12.1664 21.48L12.142 18.4801L15.094 18.4561L15.1184 21.456ZM12.1664 21.48H9.16641V19.836H12.1664H15.1664V21.48H12.1664ZM12.1664 19.836L9.1666 19.8698C9.16106 19.3769 9.14467 18.9969 9.12342 18.7308C9.11279 18.5976 9.10271 18.5157 9.09672 18.4759C9.08768 18.4156 9.09446 18.4925 9.14113 18.6384L11.9984 17.724L14.8557 16.8097C15.0188 17.3195 15.0751 17.8861 15.1044 18.2533C15.1401 18.7011 15.1598 19.2271 15.1662 19.8023L12.1664 19.836ZM11.9984 17.724L9.1737 18.7345C9.17689 18.7434 9.18665 18.7633 9.20626 18.7848C9.22457 18.8048 9.24646 18.8208 9.27019 18.832C9.29392 18.8433 9.3204 18.8502 9.34796 18.8516C9.37746 18.8532 9.39953 18.8481 9.40887 18.8448L8.39841 16.02L7.38794 13.1953C10.4257 12.1087 13.7377 13.6792 14.8231 16.7136L11.9984 17.724ZM10.1504 17.748L12.1308 15.4946L12.5268 15.8426L10.5464 18.096L8.56606 20.3495L8.17006 20.0015L10.1504 17.748ZM10.5464 18.096L13.5463 18.0693L13.5823 22.1013L10.5824 22.128L7.58253 22.1548L7.54653 18.1228L10.5464 18.096ZM10.5824 22.128L13.5823 22.1037C13.5991 24.1743 13.6169 25.6223 13.4889 26.5359C13.4166 27.0516 13.25 27.8441 12.6857 28.581C12.1293 29.3075 11.4189 29.645 11.2635 29.7253L9.88641 27.06L8.50935 24.3948C8.71394 24.2891 8.27504 24.4721 7.92223 24.9328C7.56156 25.4037 7.53072 25.819 7.54694 25.7032C7.56225 25.5939 7.58307 25.3186 7.59029 24.6853C7.5972 24.0794 7.59158 23.2719 7.5825 22.1524L10.5824 22.128ZM9.88641 27.06L11.2836 29.7148C10.888 29.923 10.1348 30.2743 9.15526 30.2241C8.20989 30.1756 7.50427 29.773 7.15011 29.555L8.72241 27L10.2947 24.4451C10.4085 24.5151 10.0569 24.2625 9.46255 24.232C8.834 24.1998 8.42878 24.4371 8.48917 24.4053L9.88641 27.06ZM8.72241 27L7.169 29.5665C5.20613 28.3785 5.08641 26.2498 5.08641 25.116H8.08641H11.0864C11.0864 25.3087 11.0948 25.4223 11.1014 25.4795C11.1083 25.5383 11.109 25.498 11.0752 25.3981C11.0386 25.2901 10.9607 25.1096 10.8076 24.9108C10.6494 24.7053 10.4613 24.5458 10.2758 24.4335L8.72241 27ZM8.08641 25.116H5.08641C5.08641 24.916 5.0818 24.8335 5.07997 24.8117C5.07716 24.778 5.08536 24.9448 5.17128 25.1923C5.27501 25.4911 5.47618 25.8638 5.82913 26.1925C6.14859 26.4901 6.45248 26.6184 6.54023 26.6535L7.65441 23.868L8.76858 21.0826C9.03633 21.1897 9.48422 21.3975 9.91843 21.8019C10.3861 22.2375 10.6728 22.7445 10.8395 23.2248C11.0959 23.9633 11.0864 24.7539 11.0864 25.116H8.08641ZM7.65441 23.868L6.60985 26.6803C7.83188 27.1342 9.09056 26.4463 9.47224 25.333L6.63441 24.36L3.79657 23.3871C4.46625 21.4338 6.63693 20.2899 8.69897 21.0558L7.65441 23.868ZM6.63441 24.36L9.4394 25.424C9.42893 25.4516 9.30264 25.8115 9.08283 26.1608C8.773 26.6532 8.29243 27.1312 7.60778 27.426C7.06928 27.6579 6.57917 27.6941 6.39114 27.7064C6.17457 27.7205 5.94228 27.72 5.79441 27.72V24.72V21.72C5.98853 21.72 6.01574 21.7181 6.00018 21.7191C5.98211 21.7203 5.90052 21.7259 5.7839 21.7473C5.66524 21.7691 5.4682 21.8147 5.23503 21.9151C4.98815 22.0214 4.73324 22.1751 4.49607 22.3863C4.26427 22.5926 4.10675 22.8029 4.00448 22.9654C3.84767 23.2146 3.77388 23.4425 3.82941 23.2961L6.63441 24.36ZM5.79441 24.72V27.72C5.20972 27.72 3.18174 27.7703 1.95813 26.0124C1.44354 25.2731 1.28193 24.4896 1.21195 23.9755C1.13911 23.4404 1.12641 22.8607 1.12641 22.32H4.12641H7.12641C7.12641 22.8174 7.1422 23.0567 7.15712 23.1662C7.17488 23.2967 7.16027 22.9835 6.88268 22.5847C6.72927 22.3643 6.52837 22.1647 6.29162 22.0077C6.06451 21.8571 5.86155 21.7836 5.7367 21.7485C5.61885 21.7155 5.55308 21.7119 5.57718 21.7141C5.59966 21.7161 5.66385 21.72 5.79441 21.72V24.72ZM4.12641 22.32H1.12641C1.12641 21.7795 1.13755 21.2064 1.2037 20.683C1.26638 20.187 1.4128 19.4086 1.90626 18.6684C3.11638 16.8533 5.1868 16.92 5.72241 16.92V19.92V22.92C5.5949 22.92 5.53609 22.9238 5.51909 22.9253C5.50036 22.927 5.57573 22.9224 5.70429 22.8859C5.84092 22.8472 6.0573 22.7669 6.29571 22.6044C6.54381 22.4352 6.74738 22.2234 6.89856 21.9966C7.16701 21.594 7.17543 21.2843 7.15636 21.4352C7.14076 21.5587 7.12641 21.8106 7.12641 22.32H4.12641ZM5.72241 19.92V16.92C5.88522 16.92 6.12624 16.9197 6.34859 16.9337C6.54753 16.9463 7.02465 16.9824 7.5504 17.1992C8.20828 17.4706 8.68187 17.9083 9.00158 18.3638C9.23109 18.6909 9.37643 19.0337 9.39252 19.0693L6.65841 20.304L3.92429 21.5388C3.85638 21.3884 3.93572 21.5902 4.09024 21.8104C4.19183 21.9552 4.34586 22.1423 4.56639 22.3257C4.79188 22.5132 5.03109 22.6504 5.26241 22.7459C5.48139 22.8362 5.66502 22.8774 5.7755 22.897C5.88357 22.9163 5.95721 22.921 5.96922 22.9217C5.97258 22.9219 5.9316 22.92 5.72241 22.92V19.92ZM6.65841 20.304L9.39984 19.0856C9.46244 19.2265 9.26243 18.6662 8.66408 18.2226C8.34424 17.9855 8.02921 17.8641 7.79781 17.8031C7.68995 17.7747 7.60379 17.7602 7.55082 17.7528C7.49806 17.7454 7.46398 17.7431 7.45796 17.7427L7.25841 20.736L7.05885 23.7294C6.76047 23.7095 5.90501 23.6462 5.09073 23.0425C4.31839 22.4699 3.99837 21.7056 3.91697 21.5225L6.65841 20.304ZM7.25841 20.736L7.49764 17.7456C7.4534 17.7421 6.48751 17.6644 5.68839 18.5353C5.34096 18.914 5.20135 19.2967 5.14651 19.5037C5.0948 19.6989 5.09817 19.8128 5.09884 19.7732L8.09841 19.824L11.098 19.8749C11.0897 20.3652 11.0317 21.5866 10.1094 22.5918C9.0433 23.7537 7.66341 23.778 7.01917 23.7265L7.25841 20.736ZM8.09841 19.824L5.0985 19.8002C5.10465 19.025 5.14457 18.101 5.41133 17.2696C5.75434 16.2004 6.49663 15.2165 7.74921 14.7263L8.84241 17.52L9.9356 20.3138C10.1906 20.214 10.4925 20.0308 10.7508 19.7363C10.9929 19.4601 11.0914 19.2055 11.1245 19.1025C11.1537 19.0115 11.1422 19.0065 11.127 19.1571C11.1126 19.3004 11.1009 19.5192 11.0983 19.8479L8.09841 19.824ZM8.84241 17.52L7.71683 14.7392C8.34694 14.4842 9.1523 14.3098 10.0535 14.4674C10.9581 14.6255 11.6595 15.0655 12.1684 15.5282L10.1504 17.748L8.13239 19.9679C8.24536 20.0706 8.54471 20.2946 9.02027 20.3777C9.49252 20.4603 9.84187 20.3519 9.96798 20.3009L8.84241 17.52ZM39.6104 17.64L41.1638 15.0735C43.1454 16.2729 43.2464 18.435 43.2464 19.584H40.2464H37.2464C37.2464 19.3717 37.2377 19.2426 37.2298 19.1723C37.2217 19.1002 37.2191 19.1329 37.2506 19.2284C37.285 19.3328 37.3617 19.5161 37.5174 19.7201C37.6788 19.9316 37.8707 20.0938 38.057 20.2065L39.6104 17.64ZM40.2464 19.584H43.2464C43.2464 19.762 43.2561 19.7687 43.2428 19.6883C43.2319 19.6223 43.1671 19.2399 42.8597 18.8068C42.4903 18.286 41.9689 17.9647 41.4703 17.826C41.2576 17.7669 41.0855 17.7507 40.9831 17.7461C40.8807 17.7416 40.815 17.7473 40.8028 17.7484L41.0744 20.736L41.346 23.7237C40.7878 23.7745 39.0758 23.8427 37.9661 22.2783C37.5343 21.6696 37.3862 21.0481 37.3231 20.6667C37.2577 20.2709 37.2464 19.8861 37.2464 19.584H40.2464ZM41.0744 20.736L40.8749 17.7427C40.8688 17.7431 40.8348 17.7454 40.782 17.7528C40.729 17.7602 40.6429 17.7747 40.535 17.8031C40.3036 17.8641 39.9886 17.9855 39.6687 18.2226C39.0704 18.6662 38.8704 19.2265 38.933 19.0856L41.6744 20.304L44.4158 21.5225C44.3344 21.7056 44.0144 22.4699 43.2421 23.0425C42.4278 23.6462 41.5723 23.7095 41.274 23.7294L41.0744 20.736ZM41.6744 20.304L38.9403 19.0693C38.9564 19.0337 39.1017 18.6909 39.3312 18.3638C39.6509 17.9083 40.1245 17.4706 40.7824 17.1992C41.3082 16.9824 41.7853 16.9463 41.9842 16.9337C42.2066 16.9197 42.4476 16.92 42.6104 16.92V19.92V22.92C42.4012 22.92 42.3602 22.9219 42.3636 22.9217C42.3756 22.921 42.4492 22.9163 42.5573 22.897C42.6678 22.8774 42.8514 22.8362 43.0704 22.7459C43.3017 22.6504 43.5409 22.5132 43.7664 22.3257C43.9869 22.1423 44.141 21.9552 44.2426 21.8104C44.3971 21.5902 44.4764 21.3884 44.4085 21.5388L41.6744 20.304ZM42.6104 19.92V16.92C43.146 16.92 45.2164 16.8533 46.4266 18.6684C46.92 19.4086 47.0664 20.187 47.1291 20.683C47.1953 21.2064 47.2064 21.7795 47.2064 22.32H44.2064H41.2064C41.2064 21.8106 41.1921 21.5587 41.1765 21.4352C41.1574 21.2843 41.1658 21.594 41.4343 21.9966C41.5854 22.2234 41.789 22.4352 42.0371 22.6044C42.2755 22.7669 42.4919 22.8472 42.6285 22.8859C42.7571 22.9224 42.8325 22.927 42.8137 22.9253C42.7967 22.9238 42.7379 22.92 42.6104 22.92V19.92ZM44.2064 22.32H47.2064C47.2064 22.8607 47.1937 23.4404 47.1209 23.9755C47.0509 24.4896 46.8893 25.2731 46.3747 26.0124C45.1511 27.7703 43.1231 27.72 42.5384 27.72V24.72V21.72C42.669 21.72 42.7332 21.7161 42.7556 21.7141C42.7797 21.7119 42.714 21.7155 42.5961 21.7485C42.4713 21.7836 42.2683 21.8571 42.0412 22.0077C41.8044 22.1647 41.6035 22.3643 41.4501 22.5847C41.1725 22.9835 41.1579 23.2967 41.1757 23.1662C41.1906 23.0567 41.2064 22.8174 41.2064 22.32H44.2064ZM42.5384 24.72V27.72C42.3905 27.72 42.1582 27.7205 41.9417 27.7064C41.7536 27.6941 41.2635 27.6579 40.725 27.426C40.0404 27.1312 39.5598 26.6532 39.25 26.1608C39.0302 25.8115 38.9039 25.4516 38.8934 25.424L41.6984 24.36L44.5034 23.2961C44.5589 23.4425 44.4851 23.2146 44.3283 22.9654C44.2261 22.8029 44.0685 22.5926 43.8367 22.3863C43.5996 22.1751 43.3447 22.0214 43.0978 21.9151C42.8646 21.8147 42.6676 21.7691 42.5489 21.7473C42.4323 21.7259 42.3507 21.7203 42.3326 21.7191C42.3171 21.7181 42.3443 21.72 42.5384 21.72V24.72ZM41.6984 24.36L38.8524 25.3087C39.2425 26.479 40.5756 27.1523 41.7926 26.6655L40.6784 23.88L39.5642 21.0946C41.6212 20.2718 43.8664 21.3771 44.5445 23.4114L41.6984 24.36ZM40.6784 23.88L41.7498 26.6822C41.7507 26.6819 41.7631 26.6771 41.7835 26.6684C41.8039 26.6597 41.8371 26.645 41.8791 26.6241C41.9613 26.5831 42.0996 26.5074 42.2585 26.3856C42.6363 26.096 42.9248 25.7052 43.0904 25.2794C43.1604 25.0994 43.1937 24.9508 43.21 24.8597C43.2261 24.7696 43.2299 24.7109 43.2304 24.7017C43.2307 24.6977 43.2277 24.7577 43.2333 24.9619L40.2344 25.044L37.2355 25.1262C37.2291 24.8924 37.2246 24.6074 37.2421 24.3274C37.2587 24.0624 37.3039 23.6047 37.4984 23.1047C38.0422 21.7062 39.2121 21.2289 39.607 21.0779L40.6784 23.88ZM40.2344 25.044L43.2337 24.9788C43.2578 26.0854 43.1961 28.3682 41.1344 29.5841L39.6104 27L38.0865 24.416C37.869 24.5442 37.667 24.7216 37.5063 24.9365C37.3523 25.1424 37.2793 25.3247 37.2476 25.4246C37.2179 25.5181 37.2206 25.5507 37.227 25.4856C37.2331 25.4226 37.2393 25.3037 37.2351 25.1092L40.2344 25.044ZM39.6104 27L41.1827 29.555C40.8285 29.773 40.1229 30.1756 39.1776 30.2241C38.198 30.2743 37.4448 29.923 37.0492 29.7148L38.4464 27.06L39.8436 24.4053C39.904 24.4371 39.4988 24.1998 38.8703 24.232C38.2759 24.2625 37.9243 24.5151 38.0381 24.4451L39.6104 27ZM38.4464 27.06L37.0693 29.7253C36.9139 29.645 36.2035 29.3075 35.6471 28.581C35.0828 27.8441 34.9162 27.0516 34.8439 26.5359C34.7159 25.6223 34.7337 24.1743 34.7505 22.1037L37.7504 22.128L40.7503 22.1524C40.7412 23.2719 40.7356 24.0794 40.7425 24.6853C40.7497 25.3186 40.7706 25.5939 40.7859 25.7032C40.8021 25.819 40.7713 25.4037 40.4106 24.9328C40.0578 24.4721 39.6189 24.2891 39.8235 24.3948L38.4464 27.06ZM37.7504 22.128L34.7505 22.1013L34.7865 18.0693L37.7864 18.096L40.7863 18.1228L40.7503 22.1548L37.7504 22.128ZM37.7864 18.096L35.8061 15.8426L36.2021 15.4946L38.1824 17.748L40.1628 20.0015L39.7668 20.3495L37.7864 18.096ZM38.1824 17.748L36.182 15.5123C36.7219 15.0293 37.5397 14.5087 38.6333 14.424C39.7145 14.3403 40.5955 14.7197 41.1953 15.0929L39.6104 17.64L38.0255 20.1872C38.0853 20.2244 38.4803 20.4538 39.0965 20.4061C39.7251 20.3574 40.0989 20.0588 40.1828 19.9838L38.1824 17.748Z" fill="black" mask="url(#path-3-inside-2_2475_2562)"/>
<mask id="path-5-inside-3_2475_2562" fill="white">
<path d="M33.9825 27.216C33.8625 27.264 33.1905 27.924 32.4825 28.68C31.7745 29.436 30.3585 30.948 29.3265 32.04C28.2945 33.132 26.7225 34.788 25.8345 35.724C24.9465 36.672 24.2025 37.44 24.1665 37.44C24.1185 37.44 17.6145 30.6 14.9745 27.768C14.4345 27.18 13.9185 27.072 13.5705 27.456C13.1865 27.876 13.3185 28.284 14.0625 29.076C15.2265 30.312 18.9465 34.26 20.9265 36.36C21.9585 37.452 23.0145 38.58 23.2905 38.868C23.6745 39.288 23.8545 39.396 24.1665 39.396C24.4785 39.396 24.6585 39.288 25.0425 38.868C25.3185 38.58 26.3745 37.452 27.4065 36.36C28.4385 35.268 30.2385 33.348 31.4265 32.1C32.6025 30.84 33.9105 29.46 34.3305 29.016C35.1585 28.14 35.2425 27.864 34.7865 27.42C34.4865 27.108 34.3425 27.072 33.9825 27.216Z"/>
</mask>
<path d="M25.8345 35.724L23.645 33.6731L23.6515 33.6661L23.6581 33.6592L25.8345 35.724ZM14.9745 27.768L12.7801 29.8136L12.7724 29.8054L12.7649 29.7972L14.9745 27.768ZM13.5705 27.456L15.7934 29.4706L15.7845 29.4803L13.5705 27.456ZM14.0625 29.076L11.8785 31.1328L11.8759 31.13L14.0625 29.076ZM20.9265 36.36L18.7461 38.4206L18.7437 38.418L20.9265 36.36ZM23.2905 38.868L25.4564 36.7923L25.4808 36.8177L25.5045 36.8437L23.2905 38.868ZM25.0425 38.868L22.8284 36.8437L22.8521 36.8177L22.8765 36.7923L25.0425 38.868ZM31.4265 32.1L33.6196 34.147L33.6096 34.1577L33.5994 34.1684L31.4265 32.1ZM34.3305 29.016L36.5107 31.0767L36.5099 31.0776L34.3305 29.016ZM34.7865 27.42L32.6936 29.5694L32.6582 29.5349L32.624 29.4993L34.7865 27.42ZM33.9825 27.216L35.0966 30.0014C35.2463 29.9416 35.361 29.8812 35.429 29.8434C35.5017 29.8029 35.5591 29.7667 35.5975 29.7416C35.6721 29.6927 35.7244 29.6529 35.7458 29.6364C35.789 29.6031 35.8058 29.587 35.7846 29.6058C35.7471 29.639 35.6698 29.7106 35.5504 29.8274C35.3176 30.0551 35.0039 30.3764 34.6722 30.7307L32.4825 28.68L30.2928 26.6293C30.669 26.2276 31.0453 25.8409 31.3555 25.5376C31.5076 25.3889 31.6651 25.2393 31.8094 25.1116C31.8792 25.0499 31.9737 24.9685 32.0794 24.8869C32.0928 24.8766 32.4173 24.611 32.8683 24.4306L33.9825 27.216ZM32.4825 28.68L34.6722 30.7307C33.9654 31.4853 32.5444 33.0026 31.5068 34.1006L29.3265 32.04L27.1461 29.9794C28.1725 28.8933 29.5835 27.3867 30.2928 26.6293L32.4825 28.68ZM29.3265 32.04L31.5068 34.1006C30.4722 35.1953 28.8973 36.8544 28.0109 37.7888L25.8345 35.724L23.6581 33.6592C24.5476 32.7216 26.1167 31.0687 27.1461 29.9794L29.3265 32.04ZM25.8345 35.724L28.0239 37.7749C27.5724 38.257 27.1513 38.6999 26.8332 39.0274C26.6767 39.1886 26.5318 39.3356 26.4159 39.449C26.3622 39.5016 26.289 39.5723 26.2132 39.6402C26.1813 39.6687 26.1044 39.7371 26.006 39.8125C25.9625 39.8458 25.8538 39.9279 25.706 40.0158C25.6333 40.0591 25.4946 40.1379 25.3101 40.2138C25.1782 40.2681 24.7485 40.44 24.1665 40.44V37.44V34.44C23.8474 34.44 23.5905 34.4911 23.4278 34.5325C23.2581 34.5756 23.1214 34.6263 23.0273 34.6651C22.8445 34.7402 22.708 34.8179 22.6378 34.8597C22.495 34.9446 22.3926 35.0223 22.3568 35.0498C22.2736 35.1135 22.2172 35.1644 22.2109 35.1701C22.1861 35.1923 22.1839 35.1956 22.2189 35.1613C22.2803 35.1012 22.3837 34.9969 22.5287 34.8476C22.8136 34.5541 23.2085 34.139 23.645 33.6731L25.8345 35.724ZM24.1665 37.44V40.44C23.8416 40.4224 23.3278 40.3204 23.1386 40.2585C23.0171 40.2112 22.8163 40.1191 22.736 40.0771C22.5789 39.992 22.464 39.9112 22.4169 39.8774C22.3129 39.8029 22.236 39.7375 22.2115 39.7165C22.1496 39.6637 22.1009 39.6178 22.0835 39.6013C22.0392 39.5595 21.9961 39.5169 21.9657 39.4865C21.8991 39.4201 21.8134 39.3328 21.7171 39.234C21.5214 39.0331 21.2469 38.7483 20.9165 38.404C20.2542 37.7138 19.3507 36.7666 18.3681 35.7329C16.4047 33.6674 14.1104 31.2407 12.7801 29.8136L14.9745 27.768L17.1689 25.7224C18.4785 27.1273 20.7563 29.5366 22.7168 31.5991C23.6963 32.6294 24.5927 33.5692 25.2459 34.2499C25.5733 34.5912 25.8353 34.8629 26.0149 35.0471C26.1062 35.1409 26.1677 35.2033 26.203 35.2385C26.2234 35.2589 26.22 35.255 26.2033 35.2393C26.1996 35.2359 26.1617 35.1998 26.1076 35.1536C26.0869 35.1359 26.0131 35.073 25.9114 35.0001C25.8655 34.9672 25.7515 34.887 25.5952 34.8022C25.5153 34.7604 25.3148 34.6686 25.1936 34.6214C25.0047 34.5595 24.4912 34.4576 24.1665 34.44V37.44ZM14.9745 27.768L12.7649 29.7972C12.6988 29.7253 12.9476 30.0444 13.5594 30.1782C13.9042 30.2536 14.3388 30.2605 14.7957 30.1106C15.2494 29.9618 15.5798 29.7063 15.7934 29.4706L13.5705 27.456L11.3475 25.4414C12.2202 24.4785 13.5186 24.0274 14.8416 24.3168C15.9333 24.5556 16.7101 25.2227 17.184 25.7388L14.9745 27.768ZM13.5705 27.456L15.7845 29.4803C15.9026 29.3511 16.1428 29.0476 16.2744 28.5664C16.4154 28.051 16.3644 27.581 16.2608 27.2442C16.2138 27.0915 16.1607 26.98 16.1256 26.9143C16.0907 26.8488 16.0652 26.8129 16.0631 26.8099C16.0605 26.8064 16.0719 26.8226 16.1048 26.8616C16.1372 26.9 16.1839 26.9526 16.249 27.022L14.0625 29.076L11.8759 31.13C11.4983 30.7281 10.8273 29.9875 10.5261 29.0088C10.3445 28.4185 10.286 27.7183 10.487 26.9835C10.6786 26.2829 11.0463 25.7708 11.3564 25.4317L13.5705 27.456ZM14.0625 29.076L16.2464 27.0192C17.41 28.2548 21.1296 32.2024 23.1092 34.302L20.9265 36.36L18.7437 38.418C16.7633 36.3176 13.0429 32.3692 11.8785 31.1328L14.0625 29.076ZM20.9265 36.36L23.1068 34.2994C24.1636 35.4176 25.1879 36.512 25.4564 36.7923L23.2905 38.868L21.1245 40.9437C20.8411 40.648 19.7533 39.4864 18.7461 38.4206L20.9265 36.36ZM23.2905 38.868L25.5045 36.8437C25.5712 36.9165 25.5866 36.9289 25.5687 36.9126C25.5495 36.8951 25.4578 36.8127 25.3032 36.7196C25.1331 36.6171 24.9222 36.5228 24.6796 36.4621C24.4475 36.4041 24.2619 36.396 24.1665 36.396V39.396V42.396C23.5783 42.396 22.8953 42.2735 22.2077 41.8594C21.6763 41.5394 21.2883 41.1241 21.0764 40.8923L23.2905 38.868ZM24.1665 39.396V36.396C24.071 36.396 23.8854 36.4041 23.6534 36.4621C23.4107 36.5228 23.1998 36.6171 23.0297 36.7196C22.8751 36.8127 22.7834 36.8951 22.7643 36.9126C22.7464 36.9289 22.7618 36.9165 22.8284 36.8437L25.0425 38.868L27.2565 40.8923C27.0446 41.1241 26.6566 41.5394 26.1252 41.8594C25.4377 42.2735 24.7546 42.396 24.1665 42.396V39.396ZM25.0425 38.868L22.8765 36.7923C23.1451 36.512 24.1693 35.4176 25.2261 34.2994L27.4065 36.36L29.5868 38.4206C28.5796 39.4864 27.4919 40.648 27.2084 40.9437L25.0425 38.868ZM27.4065 36.36L25.2261 34.2994C26.2412 33.2253 28.0629 31.2823 29.2536 30.0316L31.4265 32.1L33.5994 34.1684C32.414 35.4137 30.6357 37.3107 29.5868 38.4206L27.4065 36.36ZM31.4265 32.1L29.2333 30.053C30.4178 28.7839 31.734 27.3953 32.1511 26.9544L34.3305 29.016L36.5099 31.0776C36.087 31.5247 34.7871 32.896 33.6196 34.147L31.4265 32.1ZM34.3305 29.016L32.1503 26.9552C32.237 26.8635 32.3008 26.7935 32.3479 26.7396C32.3709 26.7132 32.3878 26.6932 32.3996 26.6788C32.4116 26.6643 32.4166 26.6575 32.4165 26.6577C32.4165 26.6577 32.4091 26.6675 32.3967 26.6862C32.3843 26.7048 32.3645 26.736 32.3406 26.7786C32.2949 26.8602 32.2188 27.012 32.1575 27.2245C32.0098 27.7365 32.0235 28.3428 32.2627 28.9061C32.3624 29.1409 32.4765 29.3085 32.5521 29.4069C32.6262 29.5035 32.6835 29.5596 32.6936 29.5694L34.7865 27.42L36.8793 25.2706C37.0978 25.4833 37.5111 25.9151 37.7854 26.5609C38.1112 27.3282 38.1376 28.1415 37.9224 28.8875C37.7411 29.516 37.4191 29.988 37.2138 30.2613C36.9929 30.5554 36.7392 30.835 36.5107 31.0767L34.3305 29.016ZM34.7865 27.42L32.624 29.4993C32.5966 29.4709 32.6687 29.5512 32.8098 29.6548C32.9691 29.7716 33.2596 29.9512 33.6707 30.0552C34.0951 30.1627 34.469 30.1447 34.7332 30.0986C34.8551 30.0774 34.948 30.0512 35.0034 30.0339C35.0585 30.0167 35.0924 30.0031 35.0966 30.0014L33.9825 27.216L32.8683 24.4306C33.1541 24.3162 34.0484 23.9616 35.1432 24.2387C36.1545 24.4948 36.7747 25.1594 36.949 25.3407L34.7865 27.42Z" fill="black" mask="url(#path-5-inside-3_2475_2562)"/>
</svg>
